<svg width="554" height="553" viewBox="0 0 554 553" fill="none" xmlns="http://www.w3.org/2000/svg">
<path d="M70.0817 0H0V69.125H70.0817V0Z" fill="#050504"/>
<path d="M138.389 69.125H70.082V138.25H138.389V69.125Z" fill="#050504"/>
<path d="M208.47 0H138.389V69.125H208.47V0Z" fill="#050504"/>
<path d="M276.778 69.125H208.471V138.25H276.778V69.125Z" fill="#050504"/>
<path d="M70.0817 138.25H0V207.375H70.0817V138.25Z" fill="#050504"/>
<path d="M138.389 207.818H70.082V276.943H138.389V207.818Z" fill="#050504"/>
<path d="M208.47 138.25H138.389V207.375H208.47V138.25Z" fill="#050504"/>
<path d="M276.778 207.818H208.471V276.943H276.778V207.818Z" fill="#050504"/>
<path d="M70.0817 276.057H0V345.182H70.0817V276.057Z" fill="#050504"/>
<path d="M138.389 345.182H70.082V414.307H138.389V345.182Z" fill="#050504"/>
<path d="M208.47 276.057H138.389V345.182H208.47V276.057Z" fill="#050504"/>
<path d="M276.778 345.182H208.471V414.307H276.778V345.182Z" fill="#050504"/>
<path d="M70.0817 414.307H0V483.432H70.0817V414.307Z" fill="#050504"/>
<path d="M138.389 483.875H70.082V553H138.389V483.875Z" fill="#050504"/>
<path d="M208.47 414.307H138.389V483.432H208.47V414.307Z" fill="#050504"/>
<path d="M276.778 483.875H208.471V553H276.778V483.875Z" fill="#050504"/>
<path d="M346.859 0H276.777V69.125H346.859V0Z" fill="#050504"/>
<path d="M415.61 69.125H347.303V138.25H415.61V69.125Z" fill="#050504"/>
<path d="M485.25 0H415.168V69.125H485.25V0Z" fill="#050504"/>
<path d="M554.001 69.125H485.693V138.25H554.001V69.125Z" fill="#050504"/>
<path d="M346.859 138.25H276.777V207.375H346.859V138.25Z" fill="#050504"/>
<path d="M415.61 207.818H347.303V276.943H415.61V207.818Z" fill="#050504"/>
<path d="M485.25 138.25H415.168V207.375H485.25V138.25Z" fill="#050504"/>
<path d="M554.001 207.818H485.693V276.943H554.001V207.818Z" fill="#050504"/>
<path d="M346.859 276.057H276.777V345.182H346.859V276.057Z" fill="#050504"/>
<path d="M415.167 345.182H346.859V414.307H415.167V345.182Z" fill="#050504"/>
<path d="M485.25 276.057H415.168V345.182H485.25V276.057Z" fill="#050504"/>
<path d="M553.556 345.182H485.248V414.307H553.556V345.182Z" fill="#050504"/>
<path d="M346.859 414.307H276.777V483.432H346.859V414.307Z" fill="#050504"/>
<path d="M415.167 483.875H346.859V553H415.167V483.875Z" fill="#050504"/>
<path d="M485.25 414.307H415.168V483.432H485.25V414.307Z" fill="#050504"/>
<path d="M553.556 483.875H485.248V553H553.556V483.875Z" fill="#050504"/>
</svg>
