<svg width="547" height="544" viewBox="0 0 547 544" fill="none" xmlns="http://www.w3.org/2000/svg">
<path d="M273.5 0L309.455 105.536L385.149 23.775L375.149 134.838L477.493 90.9891L423.266 188.375L534.565 190.02L445.488 256.89L546.496 303.745L437.971 328.537L511.224 412.5L402.016 390.927L434.847 497.48L343.839 433.272L330.572 543.991L273.5 448.25L216.428 543.991L203.161 433.272L112.153 497.48L144.984 390.927L35.776 412.5L109.029 328.537L0.503754 303.745L101.512 256.89L12.435 190.02L123.734 188.375L69.5067 90.9891L171.851 134.838L161.851 23.775L237.545 105.536L273.5 0Z" fill="#FF4294"/>
</svg>
